<svg xmlns="http://www.w3.org/2000/svg" xmlns:xlink="http://www.w3.org/1999/xlink" xmlns:a="http://ns.adobe.com/AdobeSVGViewerExtensions/3.0/" version="1.1" x="0px" y="0px" viewBox="-2.357 -2.951 1024 1280" enable-background="new -2.357 -2.951 1024 1024" xml:space="preserve"><polygon display="none" stroke="#000000" stroke-width="40" stroke-miterlimit="10" points="66.643,373.927   512.931,38.939 958.643,373.927 958.643,997.158 667.503,997.158 667.477,623.219 362.678,623.193 362.678,997.158 66.643,997.158   "/><path display="none" stroke="#000000" stroke-width="40" stroke-miterlimit="10" d="M691.643,222.494  c0,102.725-83.275,186-186,186c-102.725,0-186-83.275-186-186s83.275-186,186-186C608.368,36.494,691.643,119.769,691.643,222.494z   M797.643,762.604c0-141.385-114.615-256-256-256h-72c-141.385,0-256,114.615-256,256v228h584V762.604z"/><path display="none" fill="none" stroke="#000000" stroke-width="40" stroke-miterlimit="10" d="M996.452,158.049  v696h-968v-696H996.452z M28.452,158.049l398,387c0,0,86,95,190,0l380-387 M996.452,854.049l-343.84-347.445 M28.452,854.049  l359.654-347.445"/><path stroke="#000000" stroke-width="40" stroke-miterlimit="10" d="M316.252,412.859  c0,0,96.009,189.019,288.029,288.029c0,0,21.255,6.243,45.254-17.756l37.498-35.999c0,0,25.499-38.997,86.996-7.499L948.02,741.629  c0,0,61.497,25.498,0,85.495L834.026,942.618c0,0-25.498,47.997-152.992,19.499c0,0-433.789-114.215-622.808-612.265  c0,0-42.004-90.009,18.002-162.016L202.24,60.823c0,0,51.315-42.16,76.814,17.837l92.995,176.991c0,0,34.499,40.498-9,85.496  l-38.998,35.998C324.052,377.145,303.373,390.142,316.252,412.859z"/><path display="none" fill="none" stroke="#000000" stroke-width="40" stroke-miterlimit="10" d="M957.416,866.049  c0,24.301-19.699,44-44,44h-812c-24.3,0-44-19.699-44-44v-568c0-24.301,19.7-44,44-44h812c24.301,0,44,19.699,44,44V866.049z   M672.407,254.049c-31.499-148.596-168.081-137.89-168.081-137.89s-136.403-7.706-161.901,137.89 M957.416,404.145h-900   M630.416,404.049h-246v55c0,24.301,19.699,44,44,44h158c24.301,0,44-19.699,44-44V404.049z"/><path display="none" fill="none" stroke="#000000" stroke-width="40" stroke-miterlimit="10" d="M999.756,449.591  c0,125.565-121.096,233.427-294.189,280.345L552.958,883.877l-41.166-128.914c-269.497,0-487.966-136.719-487.966-305.372  c0-168.651,218.469-305.37,487.966-305.37C781.288,144.221,999.756,280.94,999.756,449.591z M232.894,409.631  c-29.124,0-52.733,23.609-52.733,52.733c0,29.123,23.609,52.732,52.733,52.732s52.733-23.609,52.733-52.732  C285.627,433.241,262.018,409.631,232.894,409.631z M512.228,409.631c-29.125,0-52.734,23.609-52.734,52.733  c0,29.122,23.609,52.731,52.734,52.731c29.122,0,52.731-23.609,52.731-52.731C564.959,433.241,541.35,409.631,512.228,409.631z   M778.542,409.631c-29.123,0-52.732,23.609-52.732,52.733c0,29.122,23.609,52.731,52.732,52.731  c29.122,0,52.731-23.609,52.731-52.731C831.273,433.241,807.664,409.631,778.542,409.631z"/><path display="none" fill="none" stroke="#000000" stroke-width="40" stroke-miterlimit="10" d="M982.51,268.844  v471.057c0,56.333-45.667,102-102,102H145.417c-56.333,0-102-45.667-102-102V172.825h741.074v565.066  c0,0-5.768,104.011,85.728,104.735 M880.717,270.155v506.738 M136.429,319.848h543.054 M679.483,441.859H136.429 M136.429,563.87  h306.03 M442.459,685.882H136.429"/><path display="none" fill="none" stroke="#000000" stroke-width="40" stroke-miterlimit="10" d="M365.415,791.131  c0,92.189-74.736,166.927-166.927,166.927c-92.192,0-166.928-74.737-166.928-166.927c0-92.193,74.736-166.928,166.928-166.928  C290.679,624.203,365.415,698.938,365.415,791.131z M558.806,21.636c-84.321,0-152.677,68.356-152.677,152.677  c0,84.322,68.356,152.678,152.677,152.678c84.322,0,152.68-68.356,152.68-152.678C711.486,89.992,643.128,21.636,558.806,21.636z   M865.875,728.053c-73.079,0-132.319,59.242-132.319,132.321s59.24,132.32,132.319,132.32s132.32-59.241,132.32-132.32  S938.954,728.053,865.875,728.053z M733.555,860.374l-370.618-40.479 M473.582,301.007L269.981,640.255"/><path display="none" fill="none" stroke="#000000" stroke-width="40" stroke-miterlimit="10" d="M595.688,923.844  c0,41.536-33.67,75.205-75.205,75.205l0,0c-41.533,0-75.203-33.669-75.203-75.205V370.069c0-41.534,33.67-75.204,75.203-75.204l0,0  c41.535,0,75.205,33.67,75.205,75.204V923.844z M520.484,21.395c-52.861,0-95.714,42.853-95.714,95.714  c0,52.862,42.853,95.714,95.714,95.714s95.714-42.852,95.714-95.714C616.198,64.248,573.345,21.395,520.484,21.395z"/><polygon display="none" fill="none" stroke="#000000" stroke-width="40" stroke-miterlimit="10" points="  527.467,127.833 47.419,509.049 527.467,880.909 527.467,691.89 965.511,690.889 965.511,325.854 527.467,325.853 "/><polygon display="none" fill="none" stroke="#000000" stroke-width="40" stroke-miterlimit="10" points="  484.641,880.909 964.689,499.694 484.641,127.834 484.641,316.854 46.597,317.854 46.597,682.89 484.641,682.89 "/><path display="none" fill="none" stroke="#000000" stroke-width="40" stroke-miterlimit="10" d="M989.542,510.458  c0,263.848-213.891,477.738-477.738,477.738S34.065,774.306,34.065,510.458c0-263.849,213.891-477.738,477.738-477.738  S989.542,246.609,989.542,510.458z M732.326,513.644H295.285 M495.483,702.477L291.282,513.644l204.201-195.205"/><path display="none" fill="none" stroke="#000000" stroke-width="40" stroke-miterlimit="10" d="M34.065,510.458  c0-263.848,213.891-477.738,477.738-477.738S989.542,246.61,989.542,510.458c0,263.849-213.891,477.738-477.738,477.738  S34.065,774.307,34.065,510.458z M291.281,507.272h437.041 M528.124,318.439l204.201,188.833L528.124,702.478"/><path display="none" fill="none" stroke="#000000" stroke-width="40" stroke-miterlimit="10" d="M511.883,760.457  l-0.16-499.999 M761.803,510.377l-500,0.16 M987.381,509.048c0,263.848-213.891,477.739-477.738,477.739  S31.905,772.896,31.905,509.048c0-263.848,213.891-477.738,477.738-477.738S987.381,245.201,987.381,509.048z"/><path display="none" fill="none" stroke="#000000" stroke-width="40" stroke-miterlimit="10" d="M511.883,760.457   M761.803,510.377l-500,0.16 M987.381,509.049c0,263.848-213.891,477.738-477.738,477.738S31.905,772.896,31.905,509.049  c0-263.848,213.891-477.738,477.738-477.738S987.381,245.201,987.381,509.049z"/><path display="none" fill="none" stroke="#000000" stroke-width="40" stroke-miterlimit="10" d="M688.523,333.623  L335.084,687.289 M334.97,333.736l353.666,353.44 M987.381,509.048c0,263.848-213.891,477.739-477.738,477.739  S31.905,772.896,31.905,509.048c0-263.848,213.891-477.738,477.738-477.738S987.381,245.201,987.381,509.048z"/><path display="none" fill="none" stroke="#000000" stroke-width="40" stroke-miterlimit="10" d="M745.521,155.098  c162.378,162.379,162.377,425.647-0.001,588.026c-162.38,162.379-425.647,162.38-588.026,0  c-162.379-162.378-162.379-425.646,0-588.026C319.873-7.281,583.141-7.281,745.521,155.098z M716.703,770.242l204.712,215.211  l55.936-55.937L771.609,713.277"/><path display="none" fill="none" stroke="#000000" stroke-width="40" stroke-miterlimit="10" d="M748.634,154.763  c162.378,162.379,162.377,425.647-0.001,588.026c-162.38,162.379-425.646,162.381-588.026,0  c-162.379-162.377-162.379-425.646,0-588.025C322.987-7.615,586.254-7.615,748.634,154.763z M719.816,769.908l204.712,215.211  l55.936-55.938L774.722,712.943 M454.62,607.793V289.761 M295.604,448.777h318.034"/><path display="none" fill="none" stroke="#000000" stroke-width="40" stroke-miterlimit="10" d="M748.634,154.763  c162.378,162.379,162.377,425.647-0.001,588.026c-162.38,162.379-425.646,162.381-588.026,0  c-162.379-162.377-162.379-425.646,0-588.025C322.987-7.615,586.254-7.615,748.634,154.763z M719.816,769.908l204.712,215.211  l55.936-55.938L774.722,712.943 M295.604,448.777h318.034"/><polygon display="none" fill="none" stroke="#000000" stroke-width="40" stroke-miterlimit="10" points="  514.963,64.942 655.765,353.34 982.616,404.611 748.789,648.148 799.962,968.59 514.963,817.982 223.167,968.59 280.847,648.148   43.719,404.611 373.776,353.34 "/><path display="none" fill="none" stroke="#000000" stroke-width="40" stroke-miterlimit="10" d="M511.059,138.027  c0,0,277.105-171.473,441.071,60.519c0,0,113.213,181.046-19.33,387.3c0,0-104.596,197.247-421.741,363.518  c0,0-287.485-143.595-411.168-347.374c0,0-140.345-188.672-36.18-392.091C63.711,209.898,184.678-37.482,511.059,138.027z"/><path display="none" fill="none" stroke="#000000" stroke-width="40" stroke-miterlimit="10" d="M126.643,848.049  l132-348c0,0,20-76,68-74s630,0.961,630,0.961s60,7.039,40,67.039l-136,354H126.643z M876.643,358.049c0,0,0-50-56-54h-428l-66-120  h-256c0,0-46,0-48,54v492c0,0,6,54,56,54"/><path display="none" fill="none" stroke="#000000" stroke-width="40" stroke-miterlimit="10" d="M718.888,221.418  h173.089c55.244,0,100.029,44.784,100.029,100.029v427.574c0,55.243-44.785,100.028-100.029,100.028H130.975  c-55.244,0-100.028-44.785-100.028-100.028V321.447c0-55.245,44.784-100.029,100.028-100.029h174.069 M737.032,219.211  c0-55.244-44.785-105.913-100.029-105.913H385.95c-55.244,0-100.028,50.668-100.028,105.913 M511.476,314.092  c-122.133,0-221.142,99.009-221.142,221.142s99.009,221.142,221.142,221.142s221.142-99.009,221.142-221.142  S633.609,314.092,511.476,314.092z"/><path display="none" fill="none" stroke="#000000" stroke-width="40" stroke-miterlimit="10" d="M637.534,41.517  l-81.725,95.643h-80l-79.351-97.434L275.81,87.604V219.16l-64,60l-119.962-8.847L43.885,387.761l95.924,77.399v92l-94.136,83.526  l44.539,107.892H225.81l50,61.582l-12.057,117.007l132.707,54.885l69.351-94.892h100l71.725,91.892l124.945-51.438L747.643,807.16  l58.166-58.582h130.973l44.531-107.892l-99.504-85.526v-94l101.301-73.399l-52.619-125.407L809.809,279.16l-62.166-60V85.633  L637.534,41.517z M513.498,287.515c-123.367,0-223.375,100.008-223.375,223.375S390.13,734.264,513.498,734.264  S736.873,634.256,736.873,510.89S636.865,287.515,513.498,287.515z"/><path display="none" fill="none" stroke="#000000" stroke-width="40" stroke-miterlimit="10" d="M678.591,567.232  c0,88.896-72.064,160.961-160.961,160.961l0,0c-88.896,0-160.96-72.065-160.96-160.961V186.01  c0-88.896,72.064-160.961,160.96-160.961l0,0c88.896,0,160.961,72.064,160.961,160.961V567.232z M256.069,564.354  c0,144.456,117.104,261.561,261.561,261.561l0,0c144.456,0,261.562-117.104,261.562-261.561 M517.631,995.049l-0.001-169.134   M350.36,995.049h334.541"/><path display="none" fill="none" stroke="#000000" stroke-width="40" stroke-miterlimit="10" d="M55.833,869.292  v-285.3c0-267.201,204.21-483.811,456.117-483.811l0,0c251.906,0,456.116,216.609,456.116,483.811v285.3 M245.575,523.243  c0-37.352-28.547-67.634-63.762-67.634l0,0c-35.216,0-63.763,30.282-63.763,67.634v331.175c0,37.353,28.546,67.635,63.763,67.635  l0,0c35.215,0,63.762-30.282,63.762-67.635V523.243z M905.849,523.243c0-37.352-28.548-67.634-63.764-67.634l0,0  c-35.216,0-63.763,30.282-63.763,67.634v331.175c0,37.353,28.547,67.635,63.763,67.635l0,0c35.216,0,63.764-30.282,63.764-67.635  V523.243z"/><path display="none" fill="none" stroke="#000000" stroke-width="40" stroke-miterlimit="10" d="M412.643,683.002  h-222v-342h222l308-262c0,0,66-40,66,40v780c0,0-2,90-72,42L412.643,683.002z"/><path display="none" fill="none" stroke="#000000" stroke-width="40" stroke-miterlimit="10" d="M352.364,279.544  L591.643,76.002c0,0,66-40,66,40v457.047 M283.643,338.002h-222v342h222l302,258c70,48,72-42,72-42V703.049 M75.643,66.002  l890,886.094"/><polygon display="none" fill="none" stroke="#000000" stroke-width="40" stroke-miterlimit="10" points="  158.643,51.049 158.643,974.049 902.643,509.049 "/><path display="none" fill="none" stroke="#000000" stroke-width="40" stroke-miterlimit="10" d="M387.643,857.049  h-152v-696h152V857.049z M783.643,161.049h-152v696h152V161.049z"/><path display="none" fill="none" stroke="#000000" stroke-width="40" stroke-miterlimit="10" d="M564.643,48.049h406  v418l-506,498l-406-404L564.643,48.049z M808.643,151.049c-36.451,0-66,29.549-66,66s29.549,66,66,66s66-29.549,66-66  S845.094,151.049,808.643,151.049z"/><path display="none" fill="none" stroke="#000000" stroke-width="40" stroke-miterlimit="10" d="M515.325,18.049v988   M254.587,692.049c29.944,208,260.738,186,260.738,186c289.318,0.671,253.318-202,253.318-202c-10-148-253.318-167-253.318-167  c-271.318-23-260.682-191-260.682-191c-0.056-204,260.682-190,260.682-190c230.682-2,253.318,190,253.318,190"/><path display="none" fill="none" stroke="#000000" stroke-width="40" stroke-miterlimit="10" d="M317.643,242.049h662  l-174,414h-438l-164-414h-186 M419.643,726.049c-25.958,0-47,21.043-47,47s21.042,47,47,47s47-21.043,47-47  S445.601,726.049,419.643,726.049z M751.643,726.049c-25.957,0-47,21.043-47,47s21.043,47,47,47s47-21.043,47-47  S777.6,726.049,751.643,726.049z"/><path display="none" fill="none" stroke="#000000" stroke-width="40" stroke-miterlimit="10" d="M863.264,373.839  c0,48.341-9.798,94.395-27.516,136.282C782.598,635.785,513.143,984.38,513.143,984.38S243.688,635.785,190.537,510.121  c-17.717-41.887-27.514-87.94-27.514-136.282c0-193.366,156.754-350.12,350.12-350.12S863.264,180.473,863.264,373.839z   M513.143,200.112c-86.358,0-156.365,70.007-156.365,156.365c0,86.357,70.007,156.365,156.365,156.365  c86.358,0,156.364-70.008,156.364-156.365C669.507,270.12,599.501,200.112,513.143,200.112z"/><path display="none" fill="none" stroke="#000000" stroke-width="40" stroke-miterlimit="10" d="M276.643,156.049  l233,92l245-92l156,56l80,644l-236-96l-243.5,96l-234.5-102l-248,102l86-644L276.643,156.049z M509.643,248.049l0.5,608   M276.643,156.049v598 M754.643,156.049v604"/><path display="none" fill="none" stroke="#000000" stroke-width="40" stroke-miterlimit="10" d="  M901.694,509.048c0,216.524-175.527,392.051-392.051,392.051S117.592,725.572,117.592,509.048  c0-216.523,175.527-392.051,392.051-392.051S901.694,292.525,901.694,509.048z M509.643,239.837V10.818 M509.643,993.856v-229.02   M18.124,509.049h229.019 M772.143,509.049h229.02 M509.643,411.389c-53.936,0-97.66,43.724-97.66,97.66  c0,53.936,43.724,97.66,97.66,97.66c53.936,0,97.66-43.725,97.66-97.66C607.303,455.112,563.579,411.389,509.643,411.389z"/><path display="none" fill="none" stroke="#000000" stroke-width="40" stroke-miterlimit="10" d="M736.097,770.177  c0,125.067-101.387,226.454-226.454,226.454l0,0c-125.067,0-226.454-101.387-226.454-226.454V389.087  c0-125.067,101.387-226.454,226.454-226.454l0,0c125.067,0,226.454,101.387,226.454,226.454V770.177z M549.168,319.797  c0-21.83-17.695-39.526-39.525-39.526l0,0c-21.83,0-39.525,17.696-39.525,39.526v180.309c0,21.829,17.696,39.525,39.525,39.525l0,0  c21.83,0,39.525-17.696,39.525-39.525V319.797z M509.643,162.633c0,0,3.296-112.282-90.815-141.166"/><path display="none" fill="none" stroke="#000000" stroke-width="40" stroke-miterlimit="10" d="M998.202,324.448  v548.735c0,71.17-57.695,128.865-128.866,128.865H163.743c-71.171,0-128.866-57.695-128.866-128.865V154.915  c0-71.171,57.695-128.866,128.866-128.866h504.9 M406.647,451.249L567.78,614.214L989.84,194.9L829.623,34.683L406.647,451.249z   M373.615,516.917l-46.169,176.282l174.883-43.371L373.615,516.917z"/><path display="none" fill="none" stroke="#000000" stroke-width="40" stroke-miterlimit="10" d="M511.883,523.457  l-0.16-402.999 M738.803,740.377l-229-229.84 M987.381,509.049c0,263.848-213.891,477.738-477.738,477.738  S31.905,772.896,31.905,509.049c0-263.848,213.891-477.738,477.738-477.738S987.381,245.201,987.381,509.049z"/><path display="none" fill="none" stroke="#000000" stroke-width="40" stroke-miterlimit="10" d="M1002.143,875.049  c0,37.003-29.997,67-67,67h-846c-37.003,0-67-29.997-67-67v-642c0-37.003,29.997-67,67-67h846c37.003,0,67,29.997,67,67V875.049z   M217.143,64.049v186 M807.143,64.049v186 M304.393,407.549h-122v122h122V407.549z M570.393,529.549h-122v-122h122V529.549z   M841.893,529.549h-122v-122h122V529.549z M302.893,649.549h-122v122h122V649.549z M568.893,771.549h-122v-122h122V771.549z   M840.393,771.549h-122v-122h122V771.549z"/><path display="none" fill="none" stroke="#000000" stroke-width="40" stroke-miterlimit="10" d="M876.426,524.502  c0,204.491-165.773,370.265-370.266,370.265c-204.492,0-370.266-165.773-370.266-370.265c0-204.493,165.774-370.266,370.266-370.266  C710.653,154.236,876.426,320.009,876.426,524.502z M314.079,524.502h204.538V288.497 M818.736,1008.049L705.083,838.835   M193.585,1008.049l119.946-169.214 M352.626,21.549C132.355,82.386,61.029,275.385,61.029,275.385 M666.25,21.549  c220.271,60.837,291.597,253.836,291.597,253.836"/><path display="none" fill="none" stroke="#000000" stroke-width="40" stroke-miterlimit="10" d="M759.041,930.729  c0,36.709-29.76,66.469-66.47,66.469H313.55c-36.709,0-66.469-29.76-66.469-66.469V87.369c0-36.709,29.759-66.469,66.469-66.469  h379.021c36.71,0,66.47,29.759,66.47,66.469V930.729z M762.018,160.796H244.104 M244.104,835.475h517.914 M503.061,882.994  c-18.133,0-32.831,14.697-32.831,32.83c0,18.131,14.698,32.83,32.831,32.83s32.83-14.699,32.83-32.83  C535.891,897.691,521.194,882.994,503.061,882.994z M571.521,88.368H434.602"/><path display="none" fill="none" stroke="#000000" stroke-width="40" stroke-miterlimit="10" d="M912.531,686.996  c0,18.306-14.84,33.146-33.146,33.146H139.901c-18.306,0-33.146-14.84-33.146-33.146V217.804c0-18.306,14.84-33.146,33.146-33.146  h739.483c18.307,0,33.146,14.84,33.146,33.146V686.996z M973.189,803.436c0-16.57-13.432-30.003-30.002-30.003H76.1  c-16.57,0-30.003,13.433-30.003,30.003l0,0c0,16.57,13.433,30.003,30.003,30.003h867.087  C959.757,833.438,973.189,820.006,973.189,803.436L973.189,803.436z"/><path display="none" fill="none" stroke="#000000" stroke-width="40" stroke-miterlimit="10" d="M985.191,703.07  c0,21.539-17.461,39-39,39H73.096c-21.539,0-39-17.461-39-39V202.013c0-21.539,17.461-39,39-39h873.095c21.539,0,39,17.461,39,39  V703.07z M811.174,828.08c0-14.912-12.09-27.002-27.003-27.002H235.116c-14.913,0-27.003,12.09-27.003,27.002l0,0  c0,14.914,12.09,27.004,27.003,27.004h549.055C799.084,855.084,811.174,842.994,811.174,828.08L811.174,828.08z"/><path display="none" fill="none" stroke="#000000" stroke-width="40" stroke-miterlimit="10" d="M849.086,955.718  c0,23.405-18.975,42.38-42.38,42.38H216.578c-23.406,0-42.38-18.975-42.38-42.38V62.38c0-23.406,18.974-42.38,42.38-42.38h590.128  c23.405,0,42.38,18.974,42.38,42.38V955.718z M511.642,437.203c-134.147,0-242.895,108.747-242.895,242.895  c0,134.146,108.748,242.894,242.895,242.894c134.147,0,242.895-108.747,242.895-242.894  C754.537,545.95,645.79,437.203,511.642,437.203z M511.642,587.179c-51.318,0-92.919,41.601-92.919,92.919  c0,51.317,41.601,92.919,92.919,92.919c51.317,0,92.919-41.602,92.919-92.919C604.561,628.779,562.959,587.179,511.642,587.179z   M511.642,98.596c-64.523,0-116.828,52.306-116.828,116.828c0,64.522,52.305,116.828,116.828,116.828  c64.523,0,116.827-52.306,116.827-116.828C628.469,150.901,576.166,98.596,511.642,98.596z"/><path display="none" fill="none" stroke="#000000" stroke-width="40" stroke-miterlimit="10" d="M278.234,797.422  H60.104C37.955,797.422,20,779.468,20,757.318V291.445c0-22.149,17.955-40.104,40.104-40.104h219.138 M743.503,797.422h217.488  c22.148,0,40.104-17.954,40.104-40.104V291.445c0-22.149-17.955-40.104-40.104-40.104H748.54 M745.055,677.065H273.019  l3.021,262.276h472.036L745.055,677.065z M746.565,74.756H274.53v302.821h472.035V74.756z M1001.095,447.45H20 M341.678,759.646  h338.383 M341.355,853.306h338.382"/><path display="none" fill="none" stroke="#000000" stroke-width="40" stroke-miterlimit="10" d="M925.556,825.707  c0,92.271-74.802,167.074-167.074,167.074H261.176c-92.273,0-167.075-74.803-167.075-167.074V529.51  c0-92.271,74.802-167.074,167.075-167.074h497.306c92.272,0,167.074,74.802,167.074,167.074V825.707z M716.942,290.902v-58.04  c0-114.386-92.728-207.114-207.113-207.114l0,0c-114.385,0-207.113,92.728-207.113,207.114v58.04 M509.83,569.55  c-59.68,0-108.059,48.379-108.059,108.058c0,59.68,48.379,108.061,108.059,108.061c59.679,0,108.059-48.381,108.059-108.061  C617.888,617.929,569.508,569.55,509.83,569.55z"/><path display="none" fill="none" stroke="#000000" stroke-width="40" stroke-miterlimit="10" d="M263.123,279.761  L20.233,522.65 M263.323,738.338L20.434,495.447 M337.601,849.281l346.968-680.464 M1001.937,522.65L759.048,279.761   M1001.736,495.447L758.847,738.338"/><path display="none" fill="none" stroke="#000000" stroke-width="40" stroke-miterlimit="10" d="M513.835,24.049  l381.071,75.584v522.793c0,0,8.398,197.358-381.071,371.623c0,0-343.279-121.774-389.47-363.226V101.732L513.835,24.049z   M312.36,456.927l132.936,132.937l261.63-261.63"/><path display="none" fill="none" stroke="#000000" stroke-width="40" stroke-miterlimit="10" d="M1018.643,890.653  H30.635V127.444 M279.988,396.169H170.046v381.563h109.941V396.169z M577.477,234.491H467.536v543.242h109.941V234.491z   M842.631,347.666H732.69v430.066h109.941V347.666z"/><path display="none" fill="none" stroke="#000000" stroke-width="40" stroke-miterlimit="10" d="M875.037,995.917  H143.4V23.039h466.667l264.97,268.925V995.917z M610.887,22.164l0.987,270.89h264.959 M512.29,150.37H229.312 M512.29,293.151  H229.312 M789.125,435.933H229.312 M789.125,578.715H229.312 M789.125,721.497H229.312 M789.125,864.278H229.312"/><path display="none" fill="none" stroke="#000000" stroke-width="40" stroke-miterlimit="10" d="M991.64,1000.918  H63.103V20.039h724.246L991.64,234.426V1000.918z M774.875,20.039H279.867v281.496h495.008V20.039z M800.258,678.661H254.485   M254.485,834.78h545.773"/><path display="none" fill="none" stroke="#000000" stroke-width="40" stroke-miterlimit="10" d="M24.738,521.02  c97.19,159.515,278.843,266.835,486.896,266.835c208.055,0,389.707-107.32,486.896-266.834  c-97.746-157.415-280.499-266.841-486.896-266.841c-207.682,0-389.056,106.938-486.373,265.979L24.738,521.02z M653.78,521.018  c0,78.505-63.64,142.145-142.146,142.145c-78.505,0-142.146-63.64-142.146-142.145c0-78.506,63.64-142.147,142.146-142.147  C590.14,378.871,653.78,442.512,653.78,521.018z"/><path display="none" fill="none" stroke="#000000" stroke-width="40" stroke-miterlimit="10" d="M852.725,533.277  c0,147.624-119.674,267.298-267.299,267.298H445.86c-147.625,0-267.299-119.674-267.299-267.298V374.444h674.164V533.277z   M366.26,73.804c0-26.547-21.521-48.068-48.068-48.068l0,0c-26.547,0-48.068,21.521-48.068,48.068v300.817h96.136V73.804z   M761.162,374.621h-96.137V73.804c0-26.547,21.522-48.068,48.069-48.068l0,0c26.547,0,48.067,21.521,48.067,48.068V374.621z   M519.195,800.575c-2.787,145.506,49.786,205.474,49.786,205.474"/><polygon display="none" fill="none" stroke="#000000" stroke-width="40" stroke-miterlimit="10" points="  434.437,28.049 774.656,28.049 559.781,332.455 774.656,332.455 262.537,901.874 438.018,515.1 244.631,515.1 "/><path display="none" fill="none" stroke="#000000" stroke-width="40" stroke-miterlimit="10" d="M861.824,860.256  c0,36.339-29.457,65.796-65.795,65.796H87.282c-36.338,0-65.795-29.457-65.795-65.796V299.262c0-36.338,29.458-65.796,65.795-65.796  h708.747c36.338,0,65.795,29.458,65.795,65.796V860.256z M774.096,806.004L621.728,482.797L432.421,718.276L293.904,565.907  L109.214,806.004H774.096z M280.052,404.304c0,28.051-22.739,50.79-50.79,50.79c-28.051,0-50.79-22.739-50.79-50.79  c0-28.05,22.739-50.79,50.79-50.79C257.313,353.514,280.052,376.253,280.052,404.304z M933.947,788.22  c36.339,0,65.796-29.457,65.796-65.796V161.43c0-36.338-29.457-65.795-65.796-65.795H225.201c-36.338,0-65.796,29.458-65.796,65.795  "/><path display="none" fill="none" stroke="#000000" stroke-width="40" stroke-miterlimit="10" d="M718.414,747.549  c0,38.653-31.334,69.985-69.986,69.985H90.394c-38.652,0-69.986-31.332-69.986-69.985V298.104c0-38.652,31.333-69.987,69.986-69.987  h558.034c38.652,0,69.986,31.334,69.986,69.987V747.549z M999.068,283.84L718.414,400.767v244.117l280.654,116.929V283.84z"/><path display="none" fill="none" stroke="#000000" stroke-width="40" stroke-miterlimit="10" d="M311.135,823.42  V177.39l689.326-72.173V823.42 M166.774,686.277c-79.728,0-144.36,56.553-144.36,126.315s64.632,126.315,144.36,126.315  s144.36-56.553,144.36-126.315S246.502,686.277,166.774,686.277z M856.458,687.277c-79.729,0-144.359,56.553-144.359,126.315  s64.631,126.315,144.359,126.315c79.729,0,144.36-56.553,144.36-126.315S936.188,687.277,856.458,687.277z M311.135,335.047  l689.326-72.173"/><path display="none" fill="none" stroke="#000000" stroke-width="40" stroke-miterlimit="10" d="  M287.984,904.16H24.638V640.813 M737.166,904.16h263.347V640.813 M287.984,101.823H24.638V365.17 M1000.512,365.17V101.823H737.166"/><path display="none" fill="none" stroke="#000000" stroke-width="40" stroke-miterlimit="10" d="  M5.177,652.368h273.849v273.849 M1019.972,652.368H746.122v273.849 M5.177,365.73h273.849V91.88 M746.122,91.88v273.85h273.851"/><path display="none" fill="none" stroke="#000000" stroke-width="40" stroke-miterlimit="10" d="M156.947,841.725  H32.643V550.252h124.304V841.725z M434.846,400.23H310.542v441.495h124.304V400.23z M712.745,271.64H588.441v570.085h124.304V271.64  z M990.643,143.049H866.338v698.676h124.305V143.049z"/><path display="none" fill="none" stroke="#000000" stroke-width="40" stroke-miterlimit="10" d="M186.276,280.299  c0,21.077-17.086,38.164-38.164,38.164H62.806c-21.077,0-38.163-17.086-38.163-38.164v-85.306c0-21.077,17.086-38.163,38.163-38.163  h85.306c21.077,0,38.164,17.086,38.164,38.163V280.299z M186.276,471.396c0-21.077-17.086-38.164-38.164-38.164H62.806  c-21.077,0-38.163,17.086-38.163,38.164v85.307c0,21.076,17.086,38.162,38.163,38.162h85.306c21.077,0,38.164-17.086,38.164-38.162  V471.396z M186.276,747.799c0-21.076-17.086-38.164-38.164-38.164H62.806c-21.077,0-38.163,17.088-38.163,38.164v85.307  c0,21.076,17.086,38.162,38.163,38.162h85.306c21.077,0,38.164-17.086,38.164-38.162V747.799z M996.31,202.85H295.901v69.592H996.31  V202.85z M996.31,479.253H295.901v69.593H996.31V479.253z M996.31,755.656H295.901v69.592H996.31V755.656z"/><path display="none" fill="none" stroke="#000000" stroke-width="40" stroke-miterlimit="10" d="M433.143,399.049  c0,18.778-15.222,34-34,34h-341c-18.778,0-34-15.222-34-34v-341c0-18.778,15.222-34,34-34h341c18.778,0,34,15.222,34,34V399.049z   M998.143,58.049c0-18.778-15.223-34-34-34h-341c-18.777,0-34,15.222-34,34v341c0,18.777,15.223,34,34,34h341  c18.777,0,34-15.223,34-34V58.049z M433.143,623.049c0-18.777-15.222-34-34-34h-341c-18.778,0-34,15.223-34,34v341  c0,18.777,15.222,34,34,34h341c18.778,0,34-15.223,34-34V623.049z M998.143,623.049c0-18.777-15.223-34-34-34h-341  c-18.777,0-34,15.223-34,34v341c0,18.777,15.223,34,34,34h341c18.777,0,34-15.223,34-34V623.049z"/><path display="none" fill="none" stroke="#000000" stroke-width="40" stroke-miterlimit="10" d="M828.436,162.605  v743.917c0,49.322-39.983,89.305-89.305,89.305H290.286c-49.321,0-89.304-39.982-89.304-89.305V162.605 M982.755,157.798H46.662   M723.295,157.825V83.182c0-32.464-26.318-58.783-58.783-58.783H364.905c-32.465,0-58.782,26.318-58.782,58.783v74.643   M341.735,284.144V874.29 M514.709,874.29V284.144 M687.683,874.29V284.144"/></svg>