<?xml version="1.0" standalone="no"?>
<!DOCTYPE svg PUBLIC "-//W3C//DTD SVG 20010904//EN"
 "http://www.w3.org/TR/2001/REC-SVG-20010904/DTD/svg10.dtd">
<svg version="1.0" xmlns="http://www.w3.org/2000/svg"
 width="75.000000pt" height="67.000000pt" viewBox="0 0 75.000000 67.000000"
 preserveAspectRatio="xMidYMid meet">
<metadata>
Created by potrace 1.15, written by Peter Selinger 2001-2017
</metadata>
<g transform="translate(0.000000,67.000000) scale(0.100000,-0.100000)"
fill="#fff" stroke="none">
<path d="M72 637 c-69 -118 -87 -343 -37 -463 25 -61 73 -112 133 -141 55 -27
63 -28 208 -28 148 0 152 1 209 30 110 56 159 155 158 320 0 99 -21 196 -57
265 -19 36 -29 46 -53 48 -29 3 -54 -16 -110 -85 -18 -22 -19 -22 -81 -5 -59
16 -66 16 -130 -1 l-67 -18 -18 23 c-76 97 -120 113 -155 55z m92 -169 c-36
-53 -74 -160 -75 -212 0 -31 0 -31 -11 -6 -24 59 -5 240 35 327 l11 26 37 -43
36 -42 -33 -50z m491 57 c23 -74 34 -174 25 -225 -4 -25 -8 -38 -9 -29 -3 44
-45 153 -76 200 -38 55 -38 53 9 107 23 26 29 21 51 -53z m-232 -6 c20 -5 37
-14 37 -19 0 -5 -13 -32 -30 -58 -38 -61 -39 -92 -6 -92 19 0 33 13 59 55 32
51 35 54 50 37 33 -36 68 -132 79 -217 l12 -88 -27 -23 c-83 -71 -353 -74
-438 -5 -23 18 -23 20 -12 110 11 88 50 198 78 221 9 8 21 -2 45 -40 24 -37
38 -50 56 -50 34 0 31 31 -6 92 -17 27 -28 53 -25 58 5 9 56 27 80 29 6 1 27
-4 48 -10z"/>
</g>
</svg>
