<svg xmlns="http://www.w3.org/2000/svg" xmlns:xlink="http://www.w3.org/1999/xlink" version="1.1" x="0px" y="0px" viewBox="0 0 100 125" enable-background="new 0 0 100 100" xml:space="preserve"><g><path d="M49.999,5C25.148,5,5,25.148,5,50.001C5,74.854,25.148,95,49.999,95C74.854,95,95,74.854,95,50.001   C95,25.148,74.854,5,49.999,5z M61.282,60.795c-4.116,6.719-8.159,12.305-8.318,12.543l-2.968,4.092l-2.973-4.092   c-0.163-0.238-4.216-5.824-8.335-12.543c-5.814-9.483-8.648-16.056-8.648-20.087c0-10.001,8.945-18.144,19.956-18.144   c10.982,0,19.934,8.143,19.934,18.144C69.93,44.739,67.111,51.312,61.282,60.795z"/><path d="M49.996,31.186c-5.712,0-10.352,4.204-10.352,9.4c0,5.194,4.639,9.415,10.352,9.415c5.695,0,10.332-4.221,10.332-9.415   C60.328,35.39,55.691,31.186,49.996,31.186z"/></g></svg>